<svg width="11" height="11" viewBox="0 0 11 11" fill="none" xmlns="http://www.w3.org/2000/svg">
<path fill-rule="evenodd" clip-rule="evenodd" d="M4.65295 0.674057C4.87838 0.674057 5.06113 0.856806 5.06113 1.08224V1.8986H6.69385V1.08224C6.69385 0.856806 6.8766 0.674057 7.10203 0.674057C7.32747 0.674057 7.51021 0.856806 7.51021 1.08224V1.8986H8.32658C9.00287 1.8986 9.55112 2.44685 9.55112 3.12314V3.9395H10.3675C10.5929 3.9395 10.7757 4.12225 10.7757 4.34768C10.7757 4.57312 10.5929 4.75586 10.3675 4.75586H9.55112V5.98041H10.3675C10.5929 5.98041 10.7757 6.16315 10.7757 6.38859C10.7757 6.61402 10.5929 6.79677 10.3675 6.79677H9.55112V8.02131C9.55112 8.69761 9.00287 9.24585 8.32658 9.24585H7.51021V10.0622C7.51021 10.2876 7.32747 10.4704 7.10203 10.4704C6.8766 10.4704 6.69385 10.2876 6.69385 10.0622V9.24585H5.06113V10.0622C5.06113 10.2876 4.87838 10.4704 4.65295 10.4704C4.42752 10.4704 4.24477 10.2876 4.24477 10.0622V9.24585H3.42841C2.75211 9.24585 2.20387 8.69761 2.20387 8.02131V6.79677H1.3875C1.16207 6.79677 0.979324 6.61402 0.979324 6.38859C0.979324 6.16315 1.16207 5.98041 1.3875 5.98041H2.20387V4.75586H1.3875C1.16207 4.75586 0.979324 4.57312 0.979324 4.34768C0.979324 4.12225 1.16207 3.9395 1.3875 3.9395H2.20387V3.12314C2.20387 2.44685 2.75211 1.8986 3.42841 1.8986H4.24477V1.08224C4.24477 0.856806 4.42752 0.674057 4.65295 0.674057ZM3.42841 2.71496C3.20298 2.71496 3.02023 2.89771 3.02023 3.12314V8.02131C3.02023 8.24674 3.20298 8.42949 3.42841 8.42949H8.32658C8.55201 8.42949 8.73476 8.24674 8.73476 8.02131V3.12314C8.73476 2.89771 8.55201 2.71496 8.32658 2.71496H3.42841ZM4.24477 4.34768C4.24477 4.12225 4.42752 3.9395 4.65295 3.9395H7.10203C7.32747 3.9395 7.51021 4.12225 7.51021 4.34768V6.79677C7.51021 7.0222 7.32747 7.20495 7.10203 7.20495H4.65295C4.42752 7.20495 4.24477 7.0222 4.24477 6.79677V4.34768ZM5.06113 4.75586V6.38859H6.69385V4.75586H5.06113Z" fill="white"/>
</svg>
