<svg width="9" height="9" viewBox="0 0 9 9" fill="none" xmlns="http://www.w3.org/2000/svg">
<path fill-rule="evenodd" clip-rule="evenodd" d="M1.04045 0.968646C1.34665 0.662451 1.76194 0.490433 2.19496 0.490433C2.62799 0.490433 3.04328 0.662451 3.34947 0.968646C3.65567 1.27484 3.82769 1.69013 3.82769 2.12316V2.93952H5.46041V2.12316C5.46041 1.69013 5.63243 1.27484 5.93862 0.968646C6.24482 0.662451 6.66011 0.490433 7.09313 0.490433C7.52616 0.490433 7.94145 0.662451 8.24764 0.968646C8.55384 1.27484 8.72585 1.69013 8.72585 2.12316C8.72585 2.55618 8.55384 2.97147 8.24764 3.27766C7.94145 3.58386 7.52616 3.75588 7.09313 3.75588H6.27677V5.3886H7.09313C7.52616 5.3886 7.94145 5.56062 8.24764 5.86681C8.55384 6.17301 8.72585 6.5883 8.72585 7.02132C8.72585 7.45435 8.55384 7.86964 8.24764 8.17583C7.94145 8.48203 7.52616 8.65405 7.09313 8.65405C6.66011 8.65405 6.24482 8.48203 5.93862 8.17583C5.63243 7.86964 5.46041 7.45435 5.46041 7.02132V6.20496H3.82769V7.02132C3.82769 7.45435 3.65567 7.86964 3.34947 8.17583C3.04328 8.48203 2.62799 8.65405 2.19496 8.65405C1.76194 8.65405 1.34665 8.48203 1.04045 8.17583C0.734259 7.86964 0.562241 7.45435 0.562241 7.02132C0.562241 6.5883 0.734259 6.17301 1.04045 5.86681C1.34665 5.56062 1.76194 5.3886 2.19496 5.3886H3.01132V3.75588H2.19496C1.76194 3.75588 1.34665 3.58386 1.04045 3.27766C0.734259 2.97147 0.562241 2.55618 0.562241 2.12316C0.562241 1.69013 0.734259 1.27484 1.04045 0.968646ZM3.01132 2.93952V2.12316C3.01132 1.90664 2.92532 1.699 2.77222 1.5459C2.61912 1.3928 2.41148 1.30679 2.19496 1.30679C1.97845 1.30679 1.77081 1.3928 1.61771 1.5459C1.46461 1.699 1.3786 1.90664 1.3786 2.12316C1.3786 2.33967 1.46461 2.54731 1.61771 2.70041C1.77081 2.85351 1.97845 2.93952 2.19496 2.93952H3.01132ZM3.82769 3.75588V5.3886H5.46041V3.75588H3.82769ZM3.01132 6.20496H2.19496C1.97845 6.20496 1.77081 6.29097 1.61771 6.44407C1.46461 6.59717 1.3786 6.80481 1.3786 7.02132C1.3786 7.23784 1.46461 7.44548 1.61771 7.59858C1.77081 7.75168 1.97845 7.83768 2.19496 7.83768C2.41148 7.83768 2.61912 7.75168 2.77222 7.59858C2.92532 7.44548 3.01132 7.23784 3.01132 7.02132V6.20496ZM6.27677 6.20496V7.02132C6.27677 7.23784 6.36278 7.44548 6.51588 7.59858C6.66897 7.75168 6.87662 7.83768 7.09313 7.83768C7.30964 7.83768 7.51729 7.75168 7.67039 7.59858C7.82348 7.44548 7.90949 7.23784 7.90949 7.02132C7.90949 6.80481 7.82348 6.59717 7.67039 6.44407C7.51729 6.29097 7.30964 6.20496 7.09313 6.20496H6.27677ZM6.27677 2.93952H7.09313C7.30964 2.93952 7.51729 2.85351 7.67039 2.70041C7.82348 2.54731 7.90949 2.33967 7.90949 2.12316C7.90949 1.90664 7.82348 1.699 7.67039 1.5459C7.51729 1.3928 7.30964 1.30679 7.09313 1.30679C6.87662 1.30679 6.66897 1.3928 6.51588 1.5459C6.36278 1.699 6.27677 1.90664 6.27677 2.12316V2.93952Z" fill="white"/>
</svg>
